<svg width="200" height="100" viewBox="0 0 200 100" xmlns="http://www.w3.org/2000/svg">
  <!-- Clean, simple logo that will definitely display -->
  <rect width="200" height="100" fill="white"/>
  
  <!-- Main flowing design from your image -->
  <g transform="translate(60, 45)">
    <!-- Primary curve (dark blue) -->
    <path d="M-15 -20 C-25 -35 -10 -45 8 -40 C26 -35 40 -20 45 -2 C50 16 40 35 22 40 C4 45 -15 35 -20 18 C-25 0 -20 -10 -15 -20 Z" 
          fill="#1e40af"/>
    
    <!-- Secondary curve (medium blue) -->
    <path d="M5 -30 C15 -42 35 -38 48 -22 C61 -6 58 12 50 28 C42 44 25 48 8 43 C-9 38 -15 22 -10 5 C-5 -12 0 -25 5 -30 Z" 
          fill="#2563eb" 
          opacity="0.9"/>
    
    <!-- Light blue accent -->
    <path d="M25 -25 C38 -35 55 -28 65 -10 C75 8 70 26 58 38 C46 50 28 48 18 35 C8 22 12 5 20 -8 C28 -21 25 -25 25 -25 Z" 
          fill="#60a5fa" 
          opacity="0.85"/>
    
    <!-- Connecting element -->
    <path d="M10 -5 C22 -15 35 -8 40 5 C45 18 38 30 28 32 C18 34 8 28 5 18 C2 8 6 -2 10 -5 Z" 
          fill="#3b82f6" 
          opacity="0.7"/>
  </g>
  
  <!-- Company name -->
  <text x="100" y="78" font-family="Arial, sans-serif" font-size="18" font-weight="bold" text-anchor="middle" fill="#1e40af">
    Premier Products
  </text>
  
  <!-- Tagline -->
  <text x="100" y="92" font-family="Arial, sans-serif" font-size="10" text-anchor="middle" fill="#60a5fa">
    Premium Brass Components
  </text>
</svg>
